# xmcd
#
# Track frame offsets:
#	182
#	13585
#	36205
#	50510
#	71567
#	92302
#	116600
#	130950
#	148830
#	166782
#
# Disc length: 2485 seconds
#
# Revision: 1
# Processed by: cddbd v1.5.2PL0 Copyright (c) Steve Scherf et al.
# Submitted via: audiograbber 1.83.01
#
DISCID=8209b30a
DTITLE=Varios Venezolanos - Todos Juntos, de donde son los cantantes
DYEAR=1993
DGENRE=Baladas
TTITLE0=Yordano - Quién será
TTITLE1=Sergio Perez - Regresando
TTITLE2=Cada vez que te alejas - Colina
TTITLE3=Ya no estas - Salvador Pino
TTITLE4=No lo habia pensado - Franco de Vita
TTITLE5=La pequeña Venecia - Ricardo Montaner
TTITLE6=No voy a permitirme - Urbanda
TTITLE7=Tu corazon - Victor Victor
TTITLE8=Siempre te amaré - Bordell
TTITLE9=Ilan Chester - Amor de Cerca (dime si lo notas)
EXTD=Disco recopilatorio de Sonografica en Venezuela, Actualizado por Jorge Mar
EXTD=tin
EXTT0=
EXTT1=
EXTT2=
EXTT3=
EXTT4=
EXTT5=
EXTT6=
EXTT7=
EXTT8=
EXTT9=
PLAYORDER=
